<?xml version="1.0" encoding="UTF-8" standalone="no"?>
<!DOCTYPE svg PUBLIC "-//W3C//DTD SVG 1.1//EN" "http://www.w3.org/Graphics/SVG/1.1/DTD/svg11.dtd">
<svg width="100%" height="100%" viewBox="0 0 64 64" version="1.1" xmlns="http://www.w3.org/2000/svg" xmlns:xlink="http://www.w3.org/1999/xlink" xml:space="preserve" xmlns:serif="http://www.serif.com/" style="fill-rule:evenodd;clip-rule:evenodd;stroke-linejoin:round;stroke-miterlimit:2;">
    <g transform="matrix(1,0,0,1,-172,-221)">
        <g id="logo_rotten_tomatoes" transform="matrix(1,0,0,1.02705,-0.169453,-6.89339)">
            <rect x="172.169" y="221.891" width="64" height="62.314" style="fill:none;"/>
            <g transform="matrix(1.08905,0,0,1.06037,-15.3323,-12.5744)">
                <path d="M202.225,278.616C205.722,277.577 207.162,275.671 207.124,272.129C207.111,270.94 206.84,269.279 206.521,268.436C204.846,264.003 204.86,264.06 205.266,263.169C205.484,262.691 206.054,262.121 206.533,261.903C207.688,261.377 208.378,261.83 209.939,264.141C212.155,267.421 216.147,271.151 218.739,272.365C220.817,273.337 221.401,273.454 223.582,273.33C225.748,273.208 226.315,273.016 228.056,271.817C230.342,270.243 230.957,268.961 230.936,265.821C230.914,262.675 229.282,260.078 226.037,258.026C224.052,256.77 219.827,255.478 216.752,255.186C212.832,254.813 211.448,254.174 210.948,252.502C210.461,250.877 210.973,249.544 212.526,248.395C213.317,247.809 214.286,247.612 217.21,247.441C219.564,247.304 221.3,247.012 222.014,246.634C227.12,243.932 227.452,235.166 222.577,231.778C221.213,230.83 220.709,230.694 218.613,230.706C213.786,230.733 210.521,233.893 208.981,240.032C208.856,240.528 208.373,241.345 207.906,241.848C206.92,242.912 205.066,243.074 203.448,242.238C201.818,241.394 201.608,239.544 202.547,234.253C203.714,227.67 203.08,224.913 199.984,223.099C198.013,221.944 194.509,221.539 192.427,222.226C190.591,222.832 188.2,225.287 187.649,227.131C186.539,230.849 187.419,233.205 191.537,237.527C193.267,239.343 194.787,241.162 194.917,241.569C195.507,243.43 193.263,245.566 191.194,245.112C190.014,244.852 188.891,243.709 187.065,240.905C184.131,236.398 180.033,234.959 175.996,237.019C172.523,238.791 171.624,242.794 173.93,246.216C175.268,248.202 177.67,249.526 181.37,250.316C186.728,251.461 188.237,252.624 186.775,254.482C186.017,255.446 185.945,255.462 183.45,255.19C179.685,254.781 178.226,254.932 176.135,255.947C173.955,257.005 173.005,258.175 172.412,260.531C171.222,265.256 174.552,269.442 179.482,269.421C182.078,269.409 184.049,268.337 187.344,265.147C190.984,261.622 191.634,261.25 192.809,262.02C194.095,262.863 194.256,264.112 193.375,266.415C191.371,271.651 193.22,277.095 197.525,278.629C199.329,279.272 200.025,279.27 202.225,278.617L202.225,278.616Z" style="fill:white;"/>
            </g>
        </g>
    </g>
</svg>
